<?xml version="1.0" encoding="utf-8"?>
<!-- Generator: Adobe Illustrator 21.0.0, SVG Export Plug-In . SVG Version: 6.00 Build 0)  -->
<svg version="1.1" id="Layer_1" xmlns="http://www.w3.org/2000/svg" xmlns:xlink="http://www.w3.org/1999/xlink" x="0px" y="0px"
	 viewBox="0 0 600 600" style="enable-background:new 0 0 600 600;" xml:space="preserve">
<style type="text/css">
	.st0{fill:none;}
	.st1{display:none;fill:#FF6C1B;}
	.st2{fill:#FFFFFF;}
	.st3{fill:#333333;}
</style>
<rect y="0" class="st0" width="600" height="600"/>
<path class="st1" d="M580,600H20c-11,0-20-9-20-20V20C0,9,9,0,20,0h560c11,0,20,9,20,20v560C600,591,591,600,580,600z"/>
<g>
	<polygon class="st2" points="39.3,193.6 524.1,39.3 543.4,101.7 126.2,233.1 560.7,233.1 560.7,286.9 39.3,276.8 	"/>
	<path class="st3" d="M600,223v377H0V273.3h50l50-50.3h50l-50,50.3h75l50-50.3h50l-50,50.3h75l50-50.3h50l-50,50.3h75l50-50.3h50
		l-50,50.3h75L600,223z M557.9,0l-47.7,15.2L573,47.9L557.9,0z M25,248.2c13.8,0,25-11.3,25-25.1c0-13.9-11.2-25.1-25-25.1
		c-13.8,0-25,11.2-25,25.1C0,236.9,11.2,248.2,25,248.2L25,248.2z M96.2,199.6l31.4,16.4L580.1,71.8l-7.4-24l-71.4,22.7L438.8,38
		l-47.7,15.2l62.5,32.6l-71.5,22.8l-62.5-32.6L272,91.1l62.5,32.6L263,146.5l-62.5-32.6l-47.7,15.2l62.5,32.6l-71.5,22.8l-62.5-32.6
		l-48.7,15.3L96.2,199.6L96.2,199.6z M96.2,199.6"/>
	<g>
		<rect x="83.7" y="341.1" class="st2" width="430.6" height="4.8"/>
	</g>
	<g>
		<rect x="184.3" y="343.5" class="st2" width="4.8" height="69.2"/>
	</g>
	<g>
		<rect x="400.2" y="343.5" class="st2" width="4.8" height="69.2"/>
	</g>
	<g>
		<rect x="83.7" y="434.8" class="st2" width="430.6" height="4.8"/>
	</g>
	<g>
		<rect x="83.7" y="510.7" class="st2" width="430.6" height="4.8"/>
	</g>
</g>
</svg>
